<svg width="683" height="683" viewBox="0 0 683 683" fill="none" xmlns="http://www.w3.org/2000/svg">
<g clip-path="url(#clip0_6_393)">
<path d="M671.286 0H11.3802C5.09375 0 0 5.09375 0 11.3802V386.844C0 393.13 5.09375 398.224 11.3802 398.224H204.802V671.286C204.802 677.573 209.896 682.667 216.177 682.667H671.286C677.573 682.667 682.667 677.573 682.667 671.286V11.3802C682.667 5.09375 677.573 0 671.286 0ZM659.911 659.911H227.557V386.844C227.557 380.563 222.464 375.469 216.177 375.469H22.7552V22.7552H659.911V659.911Z" fill="#DFD1A7"/>
<path d="M56.8905 352.713H216.177C222.463 352.713 227.557 347.614 227.557 341.333V273.068H250.312V341.333C250.312 347.614 255.406 352.713 261.687 352.713H409.599V375.469H261.687C255.406 375.469 250.312 380.562 250.312 386.844V625.776C250.312 632.062 255.406 637.156 261.687 637.156H431.432C431.864 637.271 432.307 637.359 432.755 637.422H432.802L500.364 637.156H625.776C632.062 637.156 637.156 632.062 637.156 625.776V386.844C637.156 380.562 632.062 375.469 625.776 375.469H580.265V352.713H625.776C632.062 352.713 637.156 347.614 637.156 341.333V56.8905C637.156 50.604 632.062 45.5103 625.776 45.5103H261.687C255.406 45.5103 250.312 50.604 250.312 56.8905V102.401H227.557V56.8905C227.557 50.604 222.463 45.5103 216.177 45.5103H56.8905C50.604 45.5103 45.5103 50.604 45.5103 56.8905V341.333C45.5103 347.614 50.604 352.713 56.8905 352.713ZM273.068 443.734H318.578V568.89H273.068V443.734ZM443.39 466.443L557.172 465.989L557.594 557.286L500.755 557.51L443.812 557.739L443.39 466.443ZM512.229 580.224L557.703 580.047L557.854 614.172L512.354 614.354L512.229 580.224ZM443.927 580.489L489.474 580.312L489.599 614.401H444.073L443.927 580.489ZM398.224 113.776H420.979V159.286H398.224V113.776ZM443.734 113.776H512V147.911H443.734V113.776ZM534.755 113.776H557.51V159.286H534.755V113.776ZM568.89 68.2655V91.0207H386.844V68.2655H568.89ZM204.802 68.2655V113.776C204.802 120.062 209.896 125.156 216.177 125.156H256.219L343.828 234.661C347.75 239.568 354.911 240.37 359.823 236.443C364.729 232.521 365.526 225.359 361.604 220.448L273.068 109.781V68.2655H364.088V102.401C364.088 108.682 369.182 113.776 375.469 113.776V170.667C375.469 176.948 380.562 182.047 386.844 182.047H432.354C438.64 182.047 443.734 176.948 443.734 170.667H512C512 176.948 517.094 182.047 523.38 182.047H568.89C575.172 182.047 580.265 176.948 580.265 170.667V113.776C586.552 113.776 591.646 108.682 591.646 102.401V68.2655H614.401V329.953H572.474L461.635 252.364C456.484 248.87 449.484 250.156 445.917 255.255C442.349 260.354 443.542 267.375 448.588 271.01L557.51 347.255V386.844C557.51 393.13 562.604 398.224 568.89 398.224H614.401V614.401H580.614L580.401 568.797C580.401 568.719 580.443 568.656 580.443 568.578C580.443 568.5 580.401 568.437 580.401 568.359L579.864 454.515C579.833 448.255 574.75 443.198 568.489 443.193H568.443L431.911 443.734C428.89 443.745 426 444.958 423.875 447.099C421.75 449.245 420.562 452.146 420.578 455.167L421.318 614.401H273.068V591.646H329.953C336.239 591.646 341.333 586.552 341.333 580.265V432.354C341.333 426.073 336.239 420.979 329.953 420.979H273.068V398.224H420.979C427.26 398.224 432.354 393.13 432.354 386.844V341.333C432.354 335.052 427.26 329.953 420.979 329.953H273.068V261.687C273.068 255.406 267.974 250.312 261.687 250.312H216.177C209.896 250.312 204.802 255.406 204.802 261.687V329.953H68.2655V307.198H125.156C131.437 307.198 136.531 302.104 136.531 295.823V102.401C136.531 96.1144 131.437 91.0207 125.156 91.0207H68.2655V68.2655H204.802ZM68.2655 113.776H113.776V284.443H68.2655V113.776Z" fill="#DFD1A7"/>
</g>
<defs>
<clipPath id="clip0_6_393">
<rect width="682.667" height="682.667" fill="white"/>
</clipPath>
</defs>
</svg>
