<svg width="683" height="683" viewBox="0 0 683 683" fill="none" xmlns="http://www.w3.org/2000/svg">
<g clip-path="url(#clip0_6_372)">
<path d="M648.537 398.232H614.403V284.459C614.366 253.054 588.919 227.607 557.514 227.571H375.478C344.073 227.607 318.626 253.054 318.589 284.459V398.232H284.455C265.617 398.253 250.347 413.523 250.326 432.366V546.138C250.414 576.08 273.726 600.809 303.611 602.663L287.252 659.911H180.911C175.469 633.448 152.194 614.438 125.174 614.402H102.419V90.5855C102.435 54.9981 129.944 25.473 165.443 22.9523C200.942 20.4315 232.352 45.7693 237.399 80.9973L237.597 82.3774C222.915 88.4241 214.39 103.84 217.077 119.486L220.181 137.855L189.76 190.098C185.672 197.124 185.64 205.795 189.672 212.852C193.708 219.909 201.202 224.279 209.332 224.316C210.634 224.316 211.936 224.206 213.218 223.987L322.37 205.54C331.073 204.066 338.141 197.691 340.505 189.186C342.865 180.682 340.094 171.578 333.391 165.833L287.491 126.485L284.387 108.116C282.184 95.3093 272.882 84.8722 260.414 81.2108L259.924 77.7786C253.201 30.7177 211.244 -3.1406 163.829 0.229079C116.414 3.59876 79.6647 43.0506 79.6647 90.5855V614.402H56.9103V603.027C56.9103 596.741 51.8167 591.647 45.5304 591.647C39.2494 591.647 34.1558 596.741 34.1558 603.027V619.225C13.4533 628.271 0.0631497 648.698 0.0214844 671.291C0.0214844 677.572 5.11507 682.665 11.4013 682.665H671.291C677.572 682.665 682.666 677.572 682.666 671.291C682.666 665.004 677.572 659.911 671.291 659.911H645.74L629.381 602.663C659.266 600.809 682.577 576.08 682.666 546.138V432.366C682.645 413.523 667.375 398.253 648.537 398.232ZM318.579 183.103L209.426 201.556L239.238 150.36L273.606 144.553L318.662 183.083L318.579 183.103ZM263.851 123.121L241.415 126.912L239.514 115.694C238.477 109.502 242.644 103.637 248.836 102.58C249.466 102.476 250.102 102.424 250.742 102.424C256.289 102.434 261.023 106.434 261.961 111.903L263.851 123.121ZM375.478 250.325H557.514C576.357 250.346 591.627 265.616 591.648 284.459V400.331C578.05 405.117 568.935 417.945 568.894 432.366V455.412C559.102 447.886 547.108 443.782 534.759 443.741H493.964L520.051 417.653C524.359 413.19 524.301 406.091 519.911 401.706C515.52 397.315 508.427 397.253 503.963 401.565L477.876 427.653V375.477C477.876 369.191 472.777 364.097 466.496 364.097C460.215 364.097 455.116 369.191 455.116 375.477V427.653L429.028 401.565C424.565 397.253 417.471 397.315 413.081 401.706C408.69 406.091 408.633 413.19 412.94 417.653L439.028 443.741H398.232C385.884 443.782 373.89 447.886 364.098 455.412V432.366C364.057 417.945 354.942 405.117 341.344 400.331V284.459C341.365 265.616 356.635 250.346 375.478 250.325ZM534.759 466.495C553.602 466.516 568.873 481.786 568.894 500.629V512.004H364.098V500.629C364.119 481.786 379.389 466.516 398.232 466.495H534.759ZM550.915 603.027L583.424 659.911H349.573L382.077 603.027H550.915ZM568.894 580.268H364.098V534.759H568.894V580.268ZM273.08 546.138V432.366C273.086 426.085 278.179 420.997 284.455 420.986H329.969C336.245 420.997 341.339 426.085 341.344 432.366V580.268H307.215C288.371 580.247 273.101 564.982 273.08 546.138ZM24.729 659.911C29.5622 646.286 42.4472 637.172 56.9103 637.156H125.174C139.632 637.172 152.522 646.286 157.355 659.911H24.729ZM310.918 659.911L327.172 603.027H355.874L323.37 659.911H310.918ZM609.621 659.911L577.117 603.027H605.819L622.074 659.911H609.621ZM659.911 546.138C659.891 564.982 644.62 580.247 625.777 580.268H591.648V432.366C591.653 426.085 596.747 420.997 603.023 420.986H648.537C654.813 420.997 659.901 426.085 659.911 432.366V546.138Z" fill="#DFD1A7"/>
</g>
<defs>
<clipPath id="clip0_6_372">
<rect width="682.667" height="682.667" fill="white"/>
</clipPath>
</defs>
</svg>
