<svg width="683" height="683" viewBox="0 0 683 683" fill="none" xmlns="http://www.w3.org/2000/svg">
<g clip-path="url(#clip0_6_374)">
<path d="M659.911 341.333H280.099L257.344 295.823H352.714C371.552 295.802 386.823 280.531 386.844 261.687V56.8903C386.823 38.0465 371.552 22.7757 352.714 22.7549H56.8906C38.0469 22.7757 22.776 38.0465 22.7552 56.8903V261.687C22.776 280.531 38.0469 295.802 56.8906 295.823H152.255L129.5 341.333H22.7552C10.1927 341.349 0.0156251 351.526 0 364.088V386.843C0.0156251 399.406 10.1927 409.583 22.7552 409.599H34.1354V671.286C34.1354 677.573 39.2292 682.666 45.5104 682.666C51.7969 682.666 56.8906 677.573 56.8906 671.286V409.599H477.865V659.911C477.88 672.474 488.063 682.651 500.62 682.666H659.911C672.474 682.651 682.651 672.474 682.667 659.911V364.088C682.651 351.526 672.474 341.349 659.911 341.333ZM580.266 546.135C573.984 546.135 568.891 551.229 568.891 557.51V568.89H500.62V500.619H659.911V568.89H591.646V557.51C591.646 551.229 586.552 546.135 580.266 546.135ZM56.8906 45.5101H352.714C358.995 45.5153 364.083 50.609 364.089 56.8903V227.557H45.5104V56.8903C45.5156 50.609 50.6094 45.5153 56.8906 45.5101ZM45.5104 261.687V250.312H364.089V261.687C364.083 267.968 358.995 273.062 352.714 273.067H56.8906C50.6094 273.062 45.5156 267.968 45.5104 261.687ZM177.698 295.823H231.901L254.656 341.333H154.943L177.698 295.823ZM22.7552 364.088H659.911V386.843H22.7552V364.088ZM659.911 409.599V477.864H591.646V466.489C591.646 460.203 586.552 455.109 580.266 455.109C573.984 455.109 568.891 460.203 568.891 466.489V477.864H500.62V409.599H659.911ZM591.646 659.911V648.531C591.646 642.25 586.552 637.156 580.266 637.156C573.984 637.156 568.891 642.25 568.891 648.531V659.911H500.62V591.646H659.911V659.911H591.646Z" fill="#DFD1A7"/>
<path d="M79.6459 113.776C82.6615 113.781 85.5574 112.583 87.6876 110.443L110.443 87.6873C113.401 84.8332 114.589 80.604 113.547 76.6248C112.505 72.6457 109.401 69.5363 105.422 68.4998C101.443 67.4582 97.2136 68.6404 94.3543 71.5988L71.599 94.354C68.349 97.6092 67.3751 102.505 69.1355 106.755C70.8959 111.005 75.0418 113.776 79.6459 113.776Z" fill="#DFD1A7"/>
<path d="M79.6459 182.047C82.6615 182.047 85.5574 180.849 87.6876 178.708L178.708 87.6873C181.667 84.8332 182.854 80.604 181.813 76.6248C180.771 72.6457 177.667 69.5363 173.688 68.4998C169.708 67.4582 165.479 68.6404 162.625 71.5988L71.599 162.625C68.349 165.875 67.3751 170.771 69.1355 175.021C70.8959 179.271 75.0418 182.041 79.6459 182.047Z" fill="#DFD1A7"/>
<path d="M659.912 136.531H580.266V22.7552C580.25 10.1927 570.073 0.0156251 557.511 0H534.756C530.75 0.0208333 526.823 1.11458 523.381 3.16667C519.938 1.11458 516.006 0.0208333 512 0H489.245C476.683 0.0156251 466.506 10.1927 466.49 22.7552V136.531H455.11C442.552 136.547 432.37 146.729 432.354 159.286V182.047C432.37 194.604 442.552 204.786 455.11 204.802H659.912C672.474 204.786 682.651 194.604 682.667 182.047V159.286C682.651 146.729 672.474 136.547 659.912 136.531ZM557.511 22.7552V136.531H534.756V22.7552H557.511ZM512 22.7552V45.5104H489.245V22.7552H512ZM489.245 68.2656H512V136.531H489.245V68.2656ZM455.11 182.047V159.286H659.912L659.922 182.047H455.11Z" fill="#DFD1A7"/>
</g>
<defs>
<clipPath id="clip0_6_374">
<rect width="682.667" height="682.667" fill="white"/>
</clipPath>
</defs>
</svg>
