<svg width="683" height="683" viewBox="0 0 683 683" fill="none" xmlns="http://www.w3.org/2000/svg">
<g clip-path="url(#clip0_6_256)">
<path d="M329.953 170.844H79.6457C60.8019 170.865 45.5311 186.135 45.5103 204.979V478.047C45.5311 496.885 60.8019 512.156 79.6457 512.177H352.713C358.995 512.177 364.088 507.083 364.088 500.802V204.979C364.068 186.135 348.797 170.865 329.953 170.844ZM341.333 489.422H79.6457C73.3644 489.417 68.2707 484.328 68.2655 478.047V204.979C68.2707 198.698 73.3644 193.604 79.6457 193.599H329.953C336.239 193.604 341.328 198.698 341.333 204.979V489.422Z" fill="#141414"/>
<path d="M648.531 216.354H580.266C561.422 216.375 546.156 231.646 546.135 250.49V421.156H409.599V204.979C409.547 161.011 373.922 125.386 329.953 125.333H79.6458C35.6771 125.386 0.0520833 161.011 0 204.979V478.047C0.0520833 522.011 35.6771 557.641 79.6458 557.688H557.51C560.531 557.672 563.422 556.474 565.563 554.349L679.323 440.589C681.448 438.443 682.651 435.552 682.667 432.531V250.49C682.646 231.646 667.375 216.375 648.531 216.354ZM568.891 421.156H591.646C597.927 421.156 603.021 416.063 603.021 409.776C603.021 403.495 597.927 398.401 591.646 398.401H568.891V375.646H614.401C620.682 375.646 625.776 370.552 625.776 364.266C625.776 357.985 620.682 352.891 614.401 352.891H568.891V330.136H591.646C597.927 330.136 603.021 325.042 603.021 318.755C603.021 312.474 597.927 307.38 591.646 307.38H568.891V284.62H659.911V427.823L568.891 518.844V421.156ZM580.266 239.11H648.531C654.813 239.115 659.906 244.208 659.911 250.49V261.865H568.891V250.49C568.896 244.208 573.984 239.115 580.266 239.11ZM22.7552 478.047V204.979C22.7917 173.573 48.2396 148.125 79.6458 148.089H329.953C361.359 148.125 386.807 173.573 386.844 204.979V534.932H79.6458C48.2396 534.896 22.7917 509.448 22.7552 478.047ZM409.599 443.912H546.135V534.932H500.62V512.177C500.62 505.896 495.526 500.802 489.245 500.802C482.958 500.802 477.865 505.896 477.865 512.177V534.932H455.109V500.802C455.109 494.516 450.016 489.422 443.734 489.422C437.448 489.422 432.354 494.516 432.354 500.802V534.932H409.599V443.912Z" fill="#141414"/>
<path d="M204.802 227.734C141.964 227.734 91.021 278.672 91.021 341.51C91.021 404.349 141.964 455.286 204.802 455.286C267.636 455.286 318.578 404.349 318.578 341.51C318.505 278.703 267.61 227.807 204.802 227.734ZM204.802 432.531C154.531 432.531 113.776 391.781 113.776 341.51C113.776 291.24 154.531 250.49 204.802 250.49C255.068 250.49 295.823 291.24 295.823 341.51C295.766 391.755 255.047 432.474 204.802 432.531Z" fill="#141414"/>
</g>
<defs>
<clipPath id="clip0_6_256">
<rect width="682.667" height="682.667" fill="white"/>
</clipPath>
</defs>
</svg>
