<svg width="683" height="683" viewBox="0 0 683 683" fill="none" xmlns="http://www.w3.org/2000/svg">
<g clip-path="url(#clip0_6_379)">
<path d="M659.925 0H22.8985C10.3438 0.0156219 0.163571 10.1906 0.147949 22.7506V91.0022C0.163571 103.562 10.3438 113.742 22.8985 113.753H45.6491V147.881C45.6699 166.721 60.9376 181.989 79.7775 182.01H91.1554V216.133C91.1554 222.418 96.2481 227.511 102.528 227.511C108.813 227.511 113.906 222.418 113.906 216.133V182.01H125.279C144.119 181.989 159.386 166.721 159.407 147.881V113.753H284.538V147.881C284.559 166.721 299.821 181.989 318.661 182.01H330.039V216.133C330.039 222.418 335.132 227.511 341.412 227.511C347.697 227.511 352.789 222.418 352.789 216.133V182.01H364.162C383.002 181.989 398.27 166.721 398.291 147.881V113.753H523.421V147.881C523.442 166.721 538.71 181.989 557.544 182.01H568.922V216.133C568.922 222.418 574.015 227.511 580.3 227.511C586.58 227.511 591.673 222.418 591.673 216.133V182.01H603.051C621.886 181.989 637.153 166.721 637.174 147.881V113.753H659.925C672.485 113.742 682.665 103.562 682.675 91.0022V22.7506C682.665 10.1906 672.485 0.0156219 659.925 0ZM136.657 147.881C136.651 154.161 131.559 159.249 125.279 159.254H79.7775C73.4975 159.249 68.41 154.161 68.4048 147.881V113.753H136.657V147.881ZM375.54 147.881C375.535 154.161 370.442 159.249 364.162 159.254H318.661C312.381 159.249 307.294 154.161 307.288 147.881V113.753H375.54V147.881ZM614.423 147.881C614.418 154.161 609.331 159.249 603.051 159.254H557.544C551.265 159.249 546.177 154.161 546.172 147.881V113.753H614.423V147.881ZM625.801 91.0022H22.8985V22.7506H659.925L659.945 91.0022H625.801Z" fill="#DFD1A7"/>
<path d="M625.801 488.578V466.395C625.801 441.264 605.425 420.894 580.3 420.894C555.17 420.894 534.794 441.264 534.794 466.395V488.578C492.209 509.704 469.771 557.371 480.623 603.658C491.475 649.94 532.758 682.668 580.3 682.668C627.837 682.668 669.126 649.94 679.973 603.658C690.825 557.371 668.386 509.704 625.801 488.578ZM557.544 466.395C557.544 453.83 567.735 443.644 580.3 443.644C592.86 443.644 603.051 453.83 603.051 466.395V480.407C588.085 476.893 572.51 476.893 557.544 480.407V466.395ZM580.3 659.777C548.093 659.777 519.058 640.375 506.732 610.62C494.406 580.866 501.217 546.618 523.994 523.841C546.765 501.07 581.014 494.259 610.768 506.579C640.527 518.905 659.925 547.941 659.925 580.147C659.873 624.107 624.255 659.725 580.3 659.777Z" fill="#DFD1A7"/>
<path d="M57.0267 466.395V488.578C14.4417 509.704 -8.00165 557.371 2.8503 603.658C13.7022 649.94 54.9907 682.668 102.528 682.668C150.07 682.668 191.353 649.94 202.205 603.658C213.057 557.371 190.619 509.704 148.029 488.578V466.395C148.029 441.264 127.658 420.894 102.528 420.894C77.3976 420.894 57.0267 441.264 57.0267 466.395ZM182.157 580.147C182.157 624.128 146.508 659.777 102.528 659.777C58.5525 659.777 22.8983 624.128 22.8983 580.147C22.8983 536.172 58.5525 500.518 102.528 500.518C146.482 500.57 182.105 536.193 182.157 580.147ZM102.528 443.644C115.088 443.66 125.263 453.835 125.278 466.395V480.407C110.318 476.893 94.743 476.893 79.7773 480.407V466.395C79.7929 453.835 89.9679 443.66 102.528 443.644Z" fill="#DFD1A7"/>
<path d="M295.91 466.395V488.578C253.325 509.704 230.887 557.371 241.734 603.658C252.586 649.94 293.874 682.668 341.411 682.668C388.954 682.668 430.237 649.94 441.089 603.658C451.941 557.371 429.503 509.704 386.912 488.578V466.395C386.912 441.264 366.542 420.894 341.411 420.894C316.281 420.894 295.91 441.264 295.91 466.395ZM421.041 580.147C421.041 624.128 385.392 659.777 341.411 659.777C297.436 659.777 261.787 624.128 261.787 580.147C261.787 536.172 297.436 500.518 341.411 500.518C385.371 500.57 420.989 536.193 421.041 580.147ZM341.411 443.644C353.971 443.66 364.151 453.835 364.162 466.395V480.407C349.201 476.893 333.626 476.893 318.661 480.407V466.395C318.676 453.835 328.851 443.66 341.411 443.644Z" fill="#DFD1A7"/>
<path d="M102.528 318.513C108.813 318.513 113.906 313.421 113.906 307.136V261.634C113.906 255.354 108.813 250.262 102.528 250.262C96.248 250.262 91.1553 255.354 91.1553 261.634V307.136C91.1553 313.421 96.248 318.513 102.528 318.513Z" fill="#DFD1A7"/>
<path d="M91.1553 386.765C91.1553 393.05 96.248 398.143 102.528 398.143C108.813 398.143 113.906 393.05 113.906 386.765V352.642C113.906 346.356 108.813 341.264 102.528 341.264C96.248 341.264 91.1553 346.356 91.1553 352.642V386.765Z" fill="#DFD1A7"/>
<path d="M341.411 318.513C347.696 318.513 352.789 313.421 352.789 307.136V261.634C352.789 255.354 347.696 250.262 341.411 250.262C335.131 250.262 330.039 255.354 330.039 261.634V307.136C330.039 313.421 335.131 318.513 341.411 318.513Z" fill="#DFD1A7"/>
<path d="M330.039 386.765C330.039 393.05 335.131 398.143 341.411 398.143C347.696 398.143 352.789 393.05 352.789 386.765V352.642C352.789 346.356 347.696 341.264 341.411 341.264C335.131 341.264 330.039 346.356 330.039 352.642V386.765Z" fill="#DFD1A7"/>
<path d="M568.922 386.765C568.922 393.05 574.015 398.143 580.3 398.143C586.58 398.143 591.673 393.05 591.673 386.765V352.642C591.673 346.356 586.58 341.264 580.3 341.264C574.015 341.264 568.922 346.356 568.922 352.642V386.765Z" fill="#DFD1A7"/>
<path d="M580.3 318.513C586.58 318.513 591.673 313.421 591.673 307.136V261.634C591.673 255.354 586.58 250.262 580.3 250.262C574.015 250.262 568.922 255.354 568.922 261.634V307.136C568.922 313.421 574.015 318.513 580.3 318.513Z" fill="#DFD1A7"/>
<path d="M84.865 604.1C75.4659 599.606 69.1859 590.426 68.4048 580.032C68.3684 573.752 63.2548 568.686 56.9697 568.717C50.6897 568.748 45.6178 573.867 45.6491 580.147C46.477 599.122 57.6206 616.119 74.69 624.45C78.3247 626.268 82.6519 626.007 86.0471 623.768C89.437 621.529 91.3793 617.65 91.1346 613.593C90.8898 609.537 88.4997 605.918 84.865 604.1Z" fill="#DFD1A7"/>
<path d="M323.748 604.1C314.349 599.606 308.069 590.426 307.288 580.032C307.257 573.752 302.138 568.686 295.853 568.717C289.573 568.748 284.506 573.867 284.538 580.147C285.366 599.122 296.504 616.119 313.573 624.45C319.192 627.262 326.029 624.981 328.836 619.363C331.648 613.744 329.372 606.907 323.748 604.1Z" fill="#DFD1A7"/>
<path d="M562.637 604.1C553.233 599.606 546.953 590.426 546.172 580.032C546.14 573.752 541.022 568.686 534.736 568.717C528.456 568.748 523.39 573.867 523.421 580.147C524.249 599.122 535.393 616.119 552.457 624.45C558.081 627.262 564.913 624.981 567.724 619.363C570.531 613.744 568.256 606.907 562.637 604.1Z" fill="#DFD1A7"/>
</g>
<defs>
<clipPath id="clip0_6_379">
<rect width="682.667" height="682.667" fill="white"/>
</clipPath>
</defs>
</svg>
